<?xml version="1.0" standalone="no"?>
<!DOCTYPE svg PUBLIC "-//W3C//DTD SVG 20010904//EN"
 "http://www.w3.org/TR/2001/REC-SVG-20010904/DTD/svg10.dtd">
<svg version="1.0" xmlns="http://www.w3.org/2000/svg"
 width="180.000000pt" height="180.000000pt" viewBox="0 0 180.000000 180.000000"
 preserveAspectRatio="xMidYMid meet">

<g transform="translate(0.000000,180.000000) scale(0.100000,-0.100000)"
fill="#000000" stroke="none">
<path d="M202 1635 c-53 -23 -63 -60 -52 -206 24 -311 108 -520 279 -690 71
-71 208 -172 222 -163 4 2 31 -7 59 -21 79 -40 231 -88 242 -77 16 16 2 29
-48 41 -61 16 -194 71 -194 82 0 13 111 31 170 27 57 -4 57 -4 181 -118 68
-62 167 -148 219 -189 108 -86 291 -211 308 -211 27 0 9 30 -31 53 -93 55
-329 241 -458 362 l-67 62 -7 77 c-8 86 -1 171 21 263 l15 62 -39 84 c-122
259 -326 436 -612 530 -135 45 -167 50 -208 32z"/>
<path d="M1115 1036 c-60 -91 -98 -386 -51 -386 9 0 15 31 19 108 5 107 40
247 61 247 16 0 142 -172 180 -244 62 -119 79 -184 78 -299 0 -57 4 -102 9
-102 31 0 39 147 14 245 -22 85 -83 206 -150 300 -58 82 -123 155 -137 155 -4
0 -15 -11 -23 -24z"/>
<path d="M595 500 c-9 -15 16 -45 85 -101 133 -107 316 -169 497 -169 58 0 73
3 73 15 0 13 -12 19 -32 16 -4 0 -54 4 -110 10 -176 18 -324 80 -437 184 -62
58 -66 61 -76 45z"/>
</g>
</svg>
